<svg width="1530" height="889" viewBox="0 0 1530 889" fill="none" xmlns="http://www.w3.org/2000/svg">
<g style="mix-blend-mode:overlay">
<path d="M16.4184 819.565H18.35C26.9133 819.565 34.0601 810.466 39.7904 792.266C45.5208 774.067 50.06 748.746 53.408 716.304C56.7561 683.466 59.1384 645.287 60.5549 601.766C62.0357 557.85 62.7762 510.374 62.7762 459.336V338.271C62.7762 293.168 62.1001 253.407 60.748 218.986C59.4603 184.565 57.5931 155.882 55.1464 132.935C52.7642 109.592 49.9312 92.1838 46.6475 80.7103C43.4282 68.8411 39.887 62.9065 36.0239 62.9065C32.0319 62.9065 28.4585 69.2368 25.3036 81.8972C22.1487 94.5576 19.4767 111.966 17.2876 134.121C15.0985 156.277 13.4244 181.598 12.2655 210.084C11.1066 238.57 10.5271 268.639 10.5271 300.29C10.5271 329.567 11.0422 358.053 12.0723 385.748C13.1669 413.047 14.7444 437.576 16.8047 459.336C18.9294 481.097 21.5049 498.505 24.531 511.561C27.6215 524.221 31.1949 530.551 35.2512 530.551C39.6939 530.551 43.6536 524.221 47.1304 511.561C50.6716 498.505 53.6978 481.69 56.2088 461.117C58.7842 440.148 60.748 417.597 62.1001 393.463C63.5166 368.933 64.2892 345.195 64.418 322.248L69.7298 321.654C69.7298 357.657 68.8284 392.078 67.0256 424.916C65.2228 457.358 62.6796 486.24 59.3959 511.561C56.1766 536.882 52.3779 556.861 47.9996 571.5C43.6858 585.743 38.9856 592.865 33.8991 592.865C28.2976 592.865 23.372 584.952 19.1226 569.126C14.9375 552.905 11.3963 531.145 8.49893 503.846C5.66595 476.547 3.54122 445.687 2.12473 411.266C0.708244 376.45 0 340.447 0 303.257C0 261.715 0.804823 222.745 2.41447 186.346C4.02411 149.947 6.342 117.9 9.36814 90.2056C12.4587 62.1153 16.2252 40.1573 20.6678 24.3318C25.1105 8.50623 30.1326 0.593458 35.7341 0.593458C42.2371 0.593458 47.8387 9.09969 52.5388 26.1121C57.3034 43.1246 61.1987 67.0607 64.2248 97.9206C67.3154 128.78 69.6011 165.179 71.0819 207.117C72.6272 249.055 73.3998 295.146 73.3998 345.393V413.047C73.3998 464.084 72.8847 512.945 71.8546 559.631C70.8244 606.316 69.086 649.441 66.6393 689.005C64.257 728.173 60.9412 762.396 56.6917 791.673C52.5066 820.555 47.227 843.106 40.8528 859.327C34.543 875.153 27.042 883.065 18.35 883.065H16.3218L16.4184 819.565Z" fill="white"/>
<path d="M106.14 12.4626H117.247L159.838 772.089L202.622 12.4626H213.536L164.184 876.537H155.685L106.14 12.4626ZM102.76 12.4626H112.418L113.77 500.285V876.537H102.76V12.4626ZM207.451 12.4626H217.206V876.537H206.196V500.285L207.451 12.4626Z" fill="white"/>
<path d="M263.756 12.4626V876.537H252.65V12.4626H263.756Z" fill="white"/>
<path d="M372.118 607.107H383.224C382.581 671.597 380.456 724.612 376.85 766.154C373.245 807.696 368.287 838.556 361.977 858.734C355.732 878.911 348.231 889 339.474 889C332.714 889 326.629 880.889 321.221 864.668C315.812 848.447 311.177 825.104 307.313 794.64C303.515 763.78 300.585 726.393 298.525 682.477C296.529 638.561 295.531 589.106 295.531 534.112V348.953C295.531 294.751 296.529 246.285 298.525 203.556C300.585 160.431 303.547 123.835 307.41 93.7664C311.338 63.3022 316.07 40.1573 321.607 24.3318C327.144 8.50623 333.358 0.593458 340.247 0.593458C348.746 0.593458 356.086 10.4844 362.267 30.2664C368.512 50.0483 373.406 80.7103 376.947 122.252C380.488 163.794 382.581 217.403 383.224 283.079H372.118C371.538 230.064 369.993 187.533 367.482 155.486C365.035 123.439 361.559 100.294 357.052 86.0514C352.545 71.4128 346.943 64.0935 340.247 64.0935C334.838 64.0935 330.042 70.6215 325.857 83.6776C321.736 96.338 318.227 114.933 315.329 139.463C312.497 163.597 310.34 193.269 308.859 228.481C307.378 263.298 306.637 303.059 306.637 347.766V534.112C306.637 578.028 307.313 617.988 308.666 653.991C310.082 689.598 312.142 720.26 314.847 745.977C317.615 771.693 321.028 791.475 325.084 805.322C329.205 818.774 334.001 825.5 339.474 825.5C346.428 825.5 352.158 818.774 356.665 805.322C361.237 791.871 364.778 769.319 367.289 737.668C369.864 705.621 371.474 662.101 372.118 607.107Z" fill="white"/>
<path d="M484.535 813.037V876.537H418.862V813.037H484.535ZM421.856 12.4626V876.537H410.846V12.4626H421.856ZM476.326 399.397V462.897H418.862V399.397H476.326ZM484.053 12.4626V75.9626H418.862V12.4626H484.053Z" fill="white"/>
<path d="M570.973 410.079L589.71 306.224C593.122 287.629 595.923 267.65 598.112 246.285C600.301 224.921 601.396 199.6 601.396 170.322C601.396 142.232 600.044 117.109 597.339 94.9533C594.635 72.7975 590.708 61.7196 585.557 61.7196C581.951 61.7196 578.893 67.852 576.382 80.1168C573.935 92.3816 572.068 108.603 570.78 128.78C569.492 148.958 568.849 171.114 568.849 195.248C568.849 214.238 569.364 234.02 570.394 254.593C571.488 274.771 573.034 295.938 575.03 318.093C577.09 339.854 579.505 362.603 582.273 386.341L639.448 876.537H626.603L578.217 461.117C574.225 427.092 570.684 395.639 567.593 366.757C564.567 337.875 562.217 309.785 560.543 282.486C558.869 255.187 558.032 226.899 558.032 197.621C558.032 156.871 559.159 121.857 561.412 92.5794C563.73 62.9065 566.949 40.1573 571.07 24.3318C575.255 8.11059 580.084 0 585.557 0C590.965 0 595.601 7.91277 599.464 23.7383C603.392 39.1682 606.353 59.7414 608.349 85.4579C610.345 111.174 611.343 139.463 611.343 170.322C611.343 196.039 610.603 219.975 609.122 242.131C607.641 264.287 605.677 284.464 603.231 302.664C600.848 320.863 598.273 337.282 595.504 351.921L573.581 473.579C569.138 500.879 565.823 525.804 563.633 548.355C561.509 570.907 560.092 591.282 559.384 609.481C558.74 627.285 558.418 642.715 558.418 655.771C558.418 685.84 559.352 713.93 561.219 740.042C563.151 766.154 566.048 787.123 569.911 802.949C573.839 818.774 578.732 826.687 584.591 826.687C589.613 826.687 594.442 818.576 599.078 802.355C603.778 786.134 607.963 763.187 611.633 733.514C615.303 703.841 618.2 668.234 620.325 626.692C622.514 585.15 623.609 539.255 623.609 489.009H633.363C633.363 526.595 632.848 561.807 631.818 594.645C630.852 627.483 629.371 657.947 627.375 686.037C625.444 714.128 623.029 739.844 620.132 763.187C619.681 766.748 619.359 769.715 619.166 772.089C619.037 774.463 618.715 777.43 618.2 780.991C613.951 814.224 608.897 840.534 603.038 859.921C597.178 878.911 591.03 888.407 584.591 888.407C577.058 888.407 570.523 878.713 564.985 859.327C559.448 839.941 555.167 812.84 552.141 778.023C549.179 742.812 547.698 702.061 547.698 655.771C547.698 620.955 548.696 589.502 550.692 561.411C552.752 533.321 555.553 507.011 559.094 482.481C562.635 457.952 566.595 433.818 570.973 410.079Z" fill="white"/>
<path d="M715.648 12.4626V876.537H704.638V12.4626H715.648ZM788.372 12.4626L737.765 408.299L711.785 594.051L710.53 510.967L731.004 354.294L774.658 12.4626H788.372ZM778.811 876.537L730.232 433.818L736.799 373.285L792.139 876.537H778.811Z" fill="white"/>
<path d="M852.79 64.6869L812.324 876.537H800.927L845.643 12.4626H853.466L852.79 64.6869ZM889.2 876.537L848.637 64.6869L848.154 12.4626H855.881L900.597 876.537H889.2ZM882.826 571.5V635H819.47V571.5H882.826Z" fill="white"/>
<path d="M934.785 12.4626V876.537H923.679V12.4626H934.785Z" fill="white"/>
<path d="M1054.06 64.6869L1013.59 876.537H1002.2L1046.91 12.4626H1054.74L1054.06 64.6869ZM1090.47 876.537L1049.91 64.6869L1049.42 12.4626H1057.15L1101.87 876.537H1090.47ZM1084.1 571.5V635H1020.74V571.5H1084.1Z" fill="white"/>
<path d="M1211.48 12.4626V876.537H1200.38L1134.12 140.056V876.537H1123.02V12.4626H1134.12L1200.47 748.944V12.4626H1211.48Z" fill="white"/>
<path d="M1330.66 465.271V776.243C1329.31 787.716 1326.99 802.355 1323.71 820.159C1320.42 837.963 1315.98 853.986 1310.38 868.229C1304.84 882.076 1297.89 889 1289.52 889C1282.5 889 1276.13 881.483 1270.4 866.449C1264.67 851.414 1259.71 829.456 1255.52 800.575C1251.4 771.297 1248.22 735.097 1245.96 691.972C1243.71 648.452 1242.58 598.008 1242.58 540.64V341.832C1242.58 285.651 1243.58 236.394 1245.58 194.061C1247.64 151.727 1250.6 116.12 1254.46 87.2383C1258.39 58.3567 1263.15 36.7944 1268.75 22.5514C1274.36 7.91277 1280.73 0.593458 1287.88 0.593458C1296.7 0.593458 1304.17 10.6822 1310.28 30.8598C1316.4 50.6417 1321.16 79.5234 1324.58 117.505C1328.05 155.486 1330.08 201.578 1330.66 255.78H1319.56C1318.91 215.821 1317.4 181.598 1315.02 153.112C1312.7 124.626 1309.32 102.668 1304.88 87.2383C1300.5 71.8084 1294.83 64.0935 1287.88 64.0935C1282.21 64.0935 1277.22 70.028 1272.91 81.8972C1268.66 93.7664 1265.08 111.372 1262.19 134.715C1259.35 158.058 1257.23 186.939 1255.81 221.36C1254.4 255.78 1253.69 295.542 1253.69 340.645V540.64C1253.69 587.326 1254.49 628.472 1256.1 664.079C1257.78 699.291 1260.16 728.964 1263.25 753.098C1266.4 776.836 1270.17 794.838 1274.55 807.103C1278.93 819.368 1283.92 825.5 1289.52 825.5C1295.44 825.5 1300.43 820.95 1304.49 811.85C1308.55 802.751 1311.8 792.464 1314.24 780.991C1316.75 769.517 1318.56 760.22 1319.65 753.098V528.178H1288.75V465.271H1330.66Z" fill="white"/>
<path d="M1436.22 813.037V876.537H1370.55V813.037H1436.22ZM1373.54 12.4626V876.537H1362.53V12.4626H1373.54ZM1428.01 399.397V462.897H1370.55V399.397H1428.01ZM1435.74 12.4626V75.9626H1370.55V12.4626H1435.74Z" fill="white"/>
<path d="M1530 813.037V876.537H1469.16V813.037H1530ZM1472.15 12.4626V876.537H1461.04V12.4626H1472.15Z" fill="white"/>
</g>
</svg>
